<?xml version="1.0" standalone="no"?>
<!DOCTYPE svg PUBLIC "-//W3C//DTD SVG 20010904//EN"
 "http://www.w3.org/TR/2001/REC-SVG-20010904/DTD/svg10.dtd">
<svg version="1.0" xmlns="http://www.w3.org/2000/svg"
 width="300.000000pt" height="263.000000pt" viewBox="0 0 300.000000 263.000000"
 preserveAspectRatio="xMidYMid meet">
<metadata>
Created by potrace 1.10, written by Peter Selinger 2001-2011
</metadata>
<g transform="translate(0.000000,263.000000) scale(0.100000,-0.100000)"
fill="#000000" stroke="none">
<path d="M462 2623 c65 -2 171 -2 236 0 64 1 11 3 -118 3 -129 0 -182 -2 -118
-3z"/>
<path d="M1398 2623 c292 -2 772 -2 1065 0 292 1 53 2 -533 2 -586 0 -825 -1
-532 -2z"/>
<path d="M2987 2533 c8 -76 13 -80 13 -10 0 31 -4 58 -9 62 -6 3 -7 -18 -4
-52z"/>
<path d="M2769 2563 c0 -4 -1 -30 -2 -58 -2 -49 -3 -50 -35 -53 -44 -4 -57
-38 -42 -104 7 -26 16 -51 21 -54 16 -10 26 5 22 31 -3 13 -9 22 -14 19 -15
-9 -10 45 7 70 8 13 26 27 40 30 20 5 25 12 22 33 -2 15 3 28 10 30 7 3 12 -4
12 -16 0 -12 6 -21 14 -21 11 0 8 11 -11 45 -24 44 -42 64 -44 48z"/>
<path d="M2671 2486 l-63 -64 1 -102 c1 -56 4 -107 8 -113 3 -5 8 -62 10 -126
3 -64 7 -118 10 -121 6 -6 -3 254 -13 370 l-6 75 49 53 c38 40 52 49 61 40 9
-9 12 -5 12 20 0 18 -1 32 -2 32 -2 -1 -32 -29 -67 -64z"/>
<path d="M2950 2501 c0 -12 -13 -49 -29 -83 -29 -63 -51 -124 -51 -139 0 -5 8
-9 19 -9 14 0 21 10 26 36 3 20 17 61 31 92 25 57 31 106 14 117 -5 3 -10 -3
-10 -14z"/>
<path d="M1502 2380 c-7 -11 -19 -20 -28 -20 -8 0 -12 5 -9 10 4 6 11 7 17 4
7 -4 8 -2 4 4 -9 15 -45 9 -57 -9 -8 -12 -10 -12 -19 1 -5 8 -10 10 -10 4 0
-7 -7 -15 -16 -18 -8 -3 -12 -2 -9 4 8 14 -5 12 -34 -4 -14 -8 -30 -12 -37 -9
-18 7 -54 -15 -54 -32 0 -19 16 -19 24 0 3 8 10 15 17 15 6 0 9 -7 5 -15 -3
-9 0 -15 10 -15 9 0 18 9 21 20 4 16 8 18 19 9 11 -9 18 -8 29 1 8 7 24 10 35
7 11 -3 20 -1 20 4 0 14 38 11 44 -3 5 -10 7 -10 12 0 3 6 10 10 15 6 5 -3 9
0 9 5 0 6 11 11 25 11 14 0 25 -4 25 -9 0 -4 12 -6 26 -3 18 3 30 0 36 -12 6
-10 22 -16 48 -16 22 0 40 -4 40 -10 0 -5 5 -10 12 -10 6 0 21 -8 32 -17 20
-17 20 -17 7 0 -7 9 -9 17 -3 17 14 0 27 -20 42 -68 8 -27 16 -38 21 -30 4 6
3 21 -3 32 -10 18 -9 19 4 8 9 -7 18 -25 21 -40 22 -108 30 -138 43 -158 11
-16 12 -24 4 -29 -6 -4 -10 -17 -9 -28 0 -12 1 -33 0 -47 -1 -20 -3 -22 -11
-10 -5 8 -10 25 -10 38 0 12 -4 22 -10 22 -5 0 -10 12 -10 26 0 14 -4 23 -9
20 -5 -3 -14 1 -21 9 -7 8 -19 15 -26 15 -8 0 -14 5 -14 12 0 9 -3 9 -12 0
-13 -13 6 -42 28 -42 17 0 34 -40 34 -78 0 -25 1 -25 15 -6 13 17 14 15 14
-31 l0 -50 -15 30 c-8 17 -11 21 -8 10 4 -11 8 -82 9 -158 1 -75 4 -140 8
-143 3 -3 8 21 12 53 7 75 23 133 35 133 6 0 10 27 10 59 0 33 4 62 9 65 18
11 21 96 5 128 -10 20 -11 28 -3 23 9 -6 10 -2 5 16 -5 13 -15 50 -24 82 -9
32 -22 57 -30 57 -7 0 -15 14 -18 30 -4 17 -13 30 -20 30 -8 0 -14 5 -14 10 0
6 -6 10 -14 10 -18 0 -29 27 -13 34 7 2 -14 5 -47 5 -47 1 -57 4 -53 16 5 12
2 12 -18 3 -13 -6 -22 -15 -18 -21 4 -6 1 -7 -6 -3 -7 5 -10 14 -7 22 8 20
-18 28 -43 14 -17 -9 -21 -8 -21 5 0 12 -6 15 -21 10 -12 -4 -24 -2 -28 4 -4
6 -11 3 -19 -9z"/>
<path d="M2989 2383 c0 -10 -4 -42 -8 -70 -6 -41 -4 -53 6 -53 9 0 13 19 13
70 0 39 -2 70 -5 70 -3 0 -5 -8 -6 -17z"/>
<path d="M320 2357 c0 -20 5 -37 10 -37 6 0 10 -7 10 -16 0 -8 4 -13 9 -9 6 3
14 -3 20 -12 9 -16 10 -16 11 3 0 12 -7 24 -15 28 -8 3 -15 13 -15 23 0 10 -7
27 -15 37 -14 19 -15 18 -15 -17z"/>
<path d="M2838 2340 c-14 -23 -34 -26 -41 -7 -3 6 -6 2 -6 -11 -1 -13 3 -21 8
-17 5 3 13 0 16 -5 7 -11 -2 -40 -32 -108 -11 -25 -13 -52 -8 -102 5 -45 3
-70 -4 -74 -7 -4 -11 1 -11 13 0 11 -4 23 -10 26 -6 4 -10 -13 -10 -44 0 -54
4 -58 45 -39 27 12 30 32 16 118 -4 25 -4 52 0 60 13 28 58 210 53 210 -2 0
-9 -9 -16 -20z"/>
<path d="M915 2326 c-14 -10 -11 -12 19 -14 20 -2 36 1 36 7 0 15 -38 20 -55
7z"/>
<path d="M625 2306 c11 -9 36 -16 55 -16 46 0 27 16 -30 24 -42 6 -44 6 -25
-8z"/>
<path d="M1181 2289 c-28 -11 -26 -16 8 -21 17 -2 25 2 27 15 3 19 -1 20 -35
6z"/>
<path d="M2200 2266 c0 -33 34 -166 43 -166 4 0 5 5 2 10 -4 6 -11 40 -16 76
-9 68 -28 119 -29 80z"/>
<path d="M2930 2251 c-16 -38 -9 -48 14 -22 13 14 15 24 8 36 -7 14 -11 12
-22 -14z"/>
<path d="M430 2230 c0 -22 4 -40 8 -40 4 0 9 18 10 40 2 23 -2 40 -8 40 -5 0
-10 -18 -10 -40z"/>
<path d="M1215 2250 c-10 -11 -22 -17 -26 -14 -12 7 -69 -28 -69 -42 0 -7 -3
-20 -6 -28 -5 -12 -2 -15 10 -10 11 4 8 -8 -13 -46 -24 -45 -28 -61 -25 -112
7 -118 14 -180 20 -190 4 -6 0 -14 -7 -19 -11 -7 -10 -9 4 -9 9 0 17 -6 18
-12 0 -7 4 -4 9 7 7 16 9 14 9 -15 1 -19 4 -62 7 -95 5 -55 4 -59 -11 -44 -12
12 -14 21 -6 41 11 29 -3 62 -17 40 -15 -22 -7 -85 11 -96 29 -18 36 4 42 136
3 70 8 135 12 145 4 12 3 15 -5 8 -6 -5 -12 -21 -14 -34 -1 -14 -9 -27 -17
-29 -11 -4 -13 4 -8 37 3 22 2 41 -2 41 -4 0 -7 16 -8 36 -1 19 -4 52 -7 72
-4 27 -3 31 4 17 8 -19 9 -19 9 3 1 12 5 30 10 40 5 9 14 44 20 76 13 72 31
97 31 43 0 -20 5 -37 11 -37 6 0 8 9 4 21 -5 14 0 27 14 40 12 11 21 26 21 34
0 20 -3 19 -25 -5z"/>
<path d="M2095 2257 c-24 -15 -35 -29 -29 -38 2 -4 0 -10 -6 -14 -6 -4 -8 -10
-5 -15 3 -4 -2 -13 -10 -20 -17 -14 -20 -70 -4 -70 6 0 8 8 5 18 -3 9 -1 23 3
31 8 12 12 12 25 2 13 -11 16 -7 21 26 3 21 9 50 14 66 5 15 9 27 8 26 -1 0
-11 -6 -22 -12z"/>
<path d="M239 2220 c-8 -50 3 -100 22 -111 19 -10 19 -9 4 27 -18 43 -12 58
16 43 12 -6 23 -8 26 -5 10 9 -8 26 -28 26 -11 0 -23 10 -28 23 l-9 22 -3 -25z"/>
<path d="M86 2188 c7 -43 19 -67 29 -56 8 8 -17 98 -27 98 -5 0 -5 -19 -2 -42z"/>
<path d="M630 2211 c0 -11 -4 -23 -10 -26 -13 -8 -13 -25 -1 -25 12 0 41 57
33 64 -11 12 -22 5 -22 -13z"/>
<path d="M157 2176 c-5 -26 -6 -70 -2 -97 5 -33 3 -49 -4 -49 -6 0 -10 -15 -8
-35 1 -19 6 -35 11 -35 4 0 6 11 4 25 -6 28 14 50 37 42 12 -5 13 2 8 41 -3
26 -12 52 -19 57 -7 6 -14 30 -16 55 l-3 45 -8 -49z"/>
<path d="M360 2208 c-1 -7 -3 -36 -6 -64 -3 -32 -1 -54 5 -59 8 -4 11 17 11
64 0 39 -2 71 -5 71 -3 0 -5 -6 -5 -12z"/>
<path d="M2867 2197 c-9 -12 -17 -25 -17 -29 0 -13 30 4 40 23 15 26 -3 31
-23 6z"/>
<path d="M2706 2174 c-12 -31 -7 -64 9 -58 8 4 15 19 15 34 0 33 -15 48 -24
24z"/>
<path d="M2991 2110 c-2 -25 -5 -101 -7 -170 -2 -116 -5 -132 -38 -217 -34
-87 -45 -143 -28 -143 4 0 24 45 45 99 l37 99 -3 188 c-1 104 -4 169 -6 144z"/>
<path d="M66 2092 c-8 -24 2 -72 15 -72 5 0 6 19 3 43 -8 51 -10 54 -18 29z"/>
<path d="M1410 2100 c0 -26 33 -109 41 -104 5 3 9 -8 9 -24 0 -18 6 -32 16
-36 20 -8 34 1 30 17 -14 46 -17 51 -25 39 -5 -9 -16 7 -31 48 -21 57 -40 85
-40 60z"/>
<path d="M2858 2103 c-11 -3 -18 -14 -18 -26 1 -20 2 -20 11 -4 12 21 48 22
75 2 23 -17 34 -19 34 -4 0 5 -16 17 -35 25 -36 14 -38 15 -67 7z"/>
<path d="M420 2071 c0 -26 14 -41 41 -41 12 0 -1 53 -15 62 -20 14 -26 8 -26
-21z"/>
<path d="M1610 2074 c0 -19 4 -25 15 -20 11 4 15 -1 15 -19 0 -13 5 -27 10
-30 6 -3 10 -16 11 -28 0 -13 3 -16 6 -8 3 7 -3 37 -13 67 -20 59 -44 80 -44
38z"/>
<path d="M325 2058 c4 -18 16 -42 27 -53 19 -20 19 -20 12 20 -7 42 -20 65
-36 65 -6 0 -7 -14 -3 -32z"/>
<path d="M2204 2074 c3 -9 6 -27 6 -40 0 -21 2 -23 14 -12 8 7 10 15 5 16 -5
2 -9 15 -9 28 0 13 -5 24 -11 24 -6 0 -8 -7 -5 -16z"/>
<path d="M0 2039 c0 -33 5 -49 15 -53 19 -7 19 8 0 59 l-14 40 -1 -46z"/>
<path d="M250 2055 c0 -8 5 -15 10 -15 6 0 10 -7 10 -15 0 -8 7 -15 16 -15 13
0 13 4 -3 30 -19 32 -33 39 -33 15z"/>
<path d="M1385 2041 c3 -18 5 -37 5 -42 0 -5 5 -9 10 -9 14 0 12 19 -6 55
l-14 30 5 -34z"/>
<path d="M2057 2063 c-3 -5 -1 -17 3 -28 7 -19 7 -19 18 2 7 12 12 24 12 27 0
9 -28 7 -33 -1z"/>
<path d="M776 2042 c-8 -23 -32 -30 -38 -11 -2 7 -12 -1 -22 -16 -21 -32 -15
-43 17 -28 49 24 54 23 73 -19 10 -22 28 -47 41 -55 13 -9 23 -25 24 -37 0
-21 0 -21 9 2 8 18 17 22 51 22 55 0 46 8 -15 14 -57 6 -91 33 -100 80 -4 18
-12 41 -20 51 -13 18 -14 18 -20 -3z"/>
<path d="M1292 2048 c-18 -18 -15 -23 13 -24 17 -1 25 3 25 14 0 13 3 12 15
-4 12 -16 14 -17 15 -3 0 27 -46 39 -68 17z"/>
<path d="M1699 2040 c-2 -35 1 -53 12 -64 16 -18 18 0 4 44 -11 35 -14 40 -16
20z"/>
<path d="M520 2008 l1 -43 14 34 c15 33 13 51 -6 51 -5 0 -9 -19 -9 -42z"/>
<path d="M1561 2018 c0 -14 2 -33 5 -42 7 -18 34 -10 34 11 0 9 -6 13 -14 10
-10 -4 -16 3 -19 21 l-4 27 -2 -27z"/>
<path d="M2596 2008 c-3 -7 -7 -35 -9 -63 -3 -27 -9 -58 -13 -68 -6 -16 -3
-16 30 4 27 16 36 28 36 47 0 21 -2 24 -10 12 -7 -11 -10 -2 -10 33 0 43 -15
65 -24 35z"/>
<path d="M618 1996 c-29 -7 -38 -15 -43 -38 -4 -15 -15 -32 -24 -38 -22 -11
-17 -70 6 -70 11 0 14 7 11 25 -3 14 1 30 8 36 8 6 14 20 14 31 0 16 5 19 28
13 32 -7 53 11 43 35 -5 12 -13 13 -43 6z"/>
<path d="M2130 1984 c0 -29 11 -31 33 -6 22 24 22 27 -8 28 -20 2 -25 -3 -25
-22z"/>
<path d="M480 1927 c0 -56 3 -65 20 -70 16 -4 18 -1 15 22 -2 14 -7 43 -10 63
-10 63 -25 54 -25 -15z"/>
<path d="M1162 1974 c-7 -8 -12 -25 -10 -37 l3 -22 13 23 c17 30 13 56 -6 36z"/>
<path d="M358 1974 c-5 -4 -8 -21 -8 -38 1 -26 2 -28 11 -13 11 19 8 63 -3 51z"/>
<path d="M421 1945 c0 -22 4 -47 9 -55 13 -19 13 46 0 75 -7 16 -9 11 -9 -20z"/>
<path d="M2271 1966 c-12 -14 -11 -16 3 -16 18 0 19 -15 7 -77 -7 -34 -5 -43
5 -43 8 0 14 10 14 23 0 12 4 28 9 36 8 12 12 12 25 2 12 -10 16 -10 16 -1 0
6 -9 14 -19 17 -10 3 -25 21 -33 40 -12 32 -14 34 -27 19z"/>
<path d="M250 1960 c0 -5 9 -15 20 -22 11 -7 20 -18 20 -24 0 -6 7 -18 16 -25
15 -12 16 -11 9 11 -4 14 -19 35 -32 48 -27 24 -33 27 -33 12z"/>
<path d="M1970 1958 c0 -7 4 -19 9 -27 11 -17 25 3 17 24 -7 18 -26 20 -26 3z"/>
<path d="M2710 1898 c-52 -27 -103 -57 -114 -67 -27 -27 -39 -106 -22 -145 7
-17 14 -41 14 -53 0 -12 6 -28 11 -35 6 -7 20 -24 31 -38 23 -30 29 -5 5 26
-8 10 -15 30 -15 43 0 14 -10 35 -21 47 -26 28 -20 74 11 74 25 0 35 -17 20
-35 -7 -8 -9 -23 -5 -32 5 -15 9 -12 21 16 18 43 18 61 -1 61 -9 0 -15 9 -15
21 0 18 -3 19 -15 9 -12 -10 -16 -9 -21 5 -4 9 -2 21 3 26 16 16 171 88 177
82 19 -19 2 -43 -46 -66 -29 -13 -59 -26 -66 -28 -10 -3 -7 -11 10 -29 13 -14
30 -38 38 -55 27 -54 46 -58 55 -12 4 17 12 35 18 38 6 4 4 16 -7 30 -9 13
-16 31 -16 41 0 24 21 34 32 14 19 -34 29 -16 25 44 -3 34 -6 62 -8 64 -2 2
-47 -19 -99 -46z m26 -96 c19 -12 26 -49 11 -55 -27 -10 -61 36 -40 56 8 9 15
9 29 -1z"/>
<path d="M667 1913 c-6 -9 20 -239 29 -263 4 -12 8 -9 19 10 7 14 10 31 6 40
-10 19 -30 122 -34 172 -4 39 -11 55 -20 41z"/>
<path d="M2125 1910 l-30 -7 28 -11 c37 -16 47 -15 47 2 0 20 -10 24 -45 16z"/>
<path d="M2000 1856 c0 -31 5 -56 10 -56 6 0 10 22 10 49 0 28 -4 53 -10 56
-6 4 -10 -15 -10 -49z"/>
<path d="M2060 1858 c0 -23 3 -39 6 -36 9 10 12 78 3 78 -5 0 -9 -19 -9 -42z"/>
<path d="M1000 1875 c-10 -12 -10 -19 2 -33 9 -9 18 -24 21 -32 3 -8 6 4 6 27
1 46 -10 61 -29 38z"/>
<path d="M2191 1869 c-1 -16 -10 -33 -22 -41 -21 -14 -21 -14 7 -13 32 0 40
18 25 56 l-10 24 0 -26z"/>
<path d="M382 1868 c3 -7 13 -15 24 -16 35 -7 54 -43 54 -104 l0 -56 -112
-111 c-62 -61 -120 -111 -129 -111 -8 0 -25 21 -38 48 -30 59 -40 39 -12 -24
26 -59 26 -64 -2 -64 -28 0 -57 28 -58 56 0 11 -4 7 -10 -12 -9 -32 -30 -44
-76 -44 -15 0 -23 -6 -23 -16 0 -14 7 -15 40 -10 22 3 75 9 118 13 l77 6 132
130 c84 83 130 134 124 141 -9 12 -24 99 -22 134 0 15 -5 22 -17 22 -10 0 -27
7 -38 15 -24 18 -37 19 -32 3z"/>
<path d="M1231 1861 c-9 -15 -7 -17 13 -14 28 6 164 -31 180 -48 7 -8 3 -7
-13 1 -27 14 -138 7 -155 -10 -6 -6 -19 -10 -30 -10 -20 -1 -20 -1 -3 -11 10
-6 25 -8 33 -5 9 4 12 2 8 -5 -4 -6 0 -15 7 -20 19 -12 79 -11 79 1 0 6 -10
10 -22 10 -38 0 -52 14 -32 31 13 11 18 11 21 2 3 -7 11 -13 19 -13 9 0 12 5
9 10 -10 16 13 12 43 -7 l27 -17 -20 23 -20 24 28 -18 c15 -9 27 -23 27 -30 0
-7 5 -15 10 -17 7 -2 5 -17 -4 -43 -7 -22 -19 -56 -26 -75 -18 -51 -20 -78 -7
-89 19 -15 94 -23 114 -12 10 5 30 12 46 16 15 3 27 12 27 20 0 18 1 18 -44 0
-23 -10 -36 -11 -36 -5 0 6 -4 9 -9 5 -19 -11 -25 22 -26 135 0 108 -1 116
-24 139 -18 18 -45 28 -95 37 -97 18 -114 17 -125 -5z m231 -285 c5 -22 3 -23
-24 -14 -15 5 -26 13 -25 16 2 4 7 15 11 26 8 23 32 6 38 -28z"/>
<path d="M1635 1864 c-44 -8 -84 -16 -88 -17 -11 -3 -18 -107 -7 -107 4 0 6 9
3 20 -4 15 -2 19 10 14 8 -3 28 3 44 12 l28 18 -18 -21 c-17 -20 -17 -21 7
-37 31 -20 76 -21 102 -1 10 8 31 15 46 15 48 0 39 17 -18 35 -36 11 -75 16
-109 13 -30 -3 -52 -1 -49 3 2 4 1 9 -3 12 -5 2 -3 3 4 1 6 -1 37 4 70 11 72
18 113 19 113 3 0 -6 3 -9 6 -6 11 11 -21 48 -41 47 -11 0 -56 -7 -100 -15z
m20 -84 c3 -5 11 -10 16 -10 6 0 8 4 4 9 -5 10 33 6 42 -3 13 -12 -12 -26 -46
-26 -42 0 -52 6 -44 26 6 16 19 18 28 4z"/>
<path d="M2454 1820 c12 -89 -25 -153 -60 -105 -7 9 -20 15 -30 13 -16 -3 -16
-4 1 -22 25 -24 23 -71 -4 -119 -26 -47 -27 -56 -1 -26 11 14 19 18 20 11 0
-28 19 0 25 40 9 52 33 87 59 88 11 0 33 -12 49 -27 l29 -28 -4 30 c-2 20 -9
30 -20 30 -28 0 -36 17 -41 78 -2 32 -10 63 -16 70 -10 9 -11 2 -7 -33z"/>
<path d="M2525 1813 c-26 -61 -12 -72 17 -15 20 39 23 52 13 52 -8 0 -22 -17
-30 -37z"/>
<path d="M2101 1791 c-9 -6 -10 -11 -2 -15 6 -4 8 -18 5 -32 -4 -14 -2 -24 5
-24 6 0 11 17 11 40 0 22 -1 40 -2 40 -2 0 -9 -4 -17 -9z"/>
<path d="M575 1728 c1 -29 5 -60 8 -68 3 -8 11 -41 17 -72 6 -32 14 -58 17
-58 9 0 -5 137 -16 157 -5 10 -6 25 -1 33 9 17 -4 60 -19 60 -5 0 -8 -24 -6
-52z"/>
<path d="M1070 1742 c0 -48 6 -53 21 -15 8 21 6 30 -6 42 -13 14 -15 11 -15
-27z"/>
<path d="M1976 1734 c-9 -24 -7 -44 4 -44 6 0 10 9 10 20 0 14 7 20 21 20 11
0 17 5 14 10 -10 16 -42 12 -49 -6z"/>
<path d="M2223 1709 c-3 -10 -13 -19 -23 -19 -11 0 -19 -10 -22 -25 -4 -19 -1
-25 12 -25 25 0 30 -9 20 -36 -5 -13 -6 -24 -1 -24 14 0 94 84 83 88 -7 2 -9
15 -6 31 5 26 3 28 -26 29 -24 0 -34 -4 -37 -19z m29 -44 c-2 -15 -11 -25 -21
-25 -27 0 -33 12 -14 32 23 26 41 23 35 -7z"/>
<path d="M1872 1690 c1 -13 9 -25 16 -28 17 -5 15 23 -4 39 -14 11 -15 10 -12
-11z"/>
<path d="M532 1683 c-12 -5 -34 -44 -37 -68 -1 -5 -7 -23 -13 -38 -15 -35 -15
-40 -2 -32 7 4 8 -8 5 -37 -5 -31 -3 -39 4 -27 10 15 16 39 28 109 3 19 9 40
13 45 6 9 21 56 17 54 -1 0 -8 -3 -15 -6z"/>
<path d="M1933 1646 c2 -37 4 -40 34 -43 24 -3 34 1 43 17 9 17 8 20 -10 20
-11 0 -20 5 -20 12 0 9 -3 9 -12 0 -18 -18 -26 -15 -31 11 -3 12 -4 4 -4 -17z"/>
<path d="M2460 1657 c0 -13 4 -27 9 -32 32 -35 101 -435 82 -474 -9 -19 13
-368 24 -379 9 -8 -2 350 -16 498 -10 111 -36 295 -46 320 -3 8 -7 20 -9 25
-14 59 -44 87 -44 42z"/>
<path d="M1190 1655 c0 -11 6 -40 14 -65 15 -52 27 -33 14 25 -10 45 -28 70
-28 40z"/>
<path d="M2083 1647 c-37 -25 -41 -37 -13 -37 11 0 20 7 20 15 0 8 4 15 9 15
5 0 11 -7 15 -15 5 -15 36 -21 36 -7 -1 23 -14 52 -24 51 -6 0 -25 -11 -43
-22z"/>
<path d="M2725 1651 c-3 -6 -8 -45 -12 -88 -5 -77 -5 -79 25 -110 19 -21 31
-28 34 -20 6 18 1 85 -12 141 -5 28 -8 58 -4 68 6 19 -20 26 -31 9z"/>
<path d="M2811 1550 c1 -60 6 -110 10 -110 5 0 9 50 9 110 0 69 -4 110 -10
110 -7 0 -10 -40 -9 -110z"/>
<path d="M2584 1556 c87 -116 121 -225 106 -346 l-7 -55 -3 45 c-3 40 -4 37
-10 -25 -4 -38 -8 -125 -9 -193 -1 -90 -4 -121 -13 -116 -6 4 -8 3 -5 -2 3 -6
2 -16 -4 -24 -6 -11 -9 -12 -9 -2 0 26 -18 2 -24 -33 -4 -20 -14 -39 -22 -42
-7 -3 -14 -15 -14 -27 0 -11 -4 -27 -9 -35 -10 -15 -14 35 -31 342 -10 187
-31 324 -71 460 -11 37 -22 67 -25 67 -8 0 5 -92 27 -185 30 -132 47 -253 35
-265 -5 -5 -8 -33 -7 -62 1 -29 3 -70 4 -90 1 -21 -2 -39 -8 -41 -6 -2 -5 -9
3 -19 7 -8 12 -31 11 -49 -1 -19 2 -63 7 -99 14 -103 9 -299 -9 -342 -15 -35
-73 -87 -126 -111 -13 -7 -36 -22 -50 -34 -70 -60 -87 -73 -94 -73 -5 0 -28
-13 -52 -30 -49 -34 -55 -36 -55 -17 0 7 -18 31 -40 52 -22 21 -40 44 -40 50
0 5 6 3 13 -6 7 -9 23 -20 36 -24 17 -5 8 8 -32 45 -32 29 -57 58 -57 64 0 6
24 -14 54 -43 31 -30 59 -50 65 -46 6 3 10 3 9 -2 -3 -7 5 -13 16 -13 3 0 -11
23 -30 51 -31 47 -33 53 -19 69 19 21 19 47 1 82 -21 39 0 35 25 -5 12 -17 18
-23 14 -12 -4 11 -8 25 -8 32 0 7 -3 11 -6 11 -9 -2 -65 26 -72 35 -4 5 -10 4
-14 -3 -4 -6 -5 -12 -4 -13 35 -18 45 -30 58 -65 13 -37 13 -43 -2 -60 -15
-17 -15 -20 3 -50 25 -41 25 -54 0 -23 -11 13 -20 20 -20 15 0 -4 -16 8 -36
27 -19 18 -38 33 -42 32 -4 -1 -7 6 -6 17 0 10 -3 17 -7 14 -9 -5 -20 30 -54
166 -20 81 -32 110 -52 128 -28 26 -25 39 5 23 26 -14 62 -14 62 -1 0 9 36 36
114 85 18 11 54 36 80 55 27 19 53 34 57 32 5 -1 9 3 9 9 0 5 4 8 9 5 10 -6
23 19 14 27 -3 3 -26 -10 -52 -29 -27 -18 -51 -31 -54 -27 -4 3 -7 -1 -7 -10
0 -9 -6 -17 -13 -17 -7 0 -22 -8 -33 -18 -11 -11 -28 -18 -38 -16 -10 1 -15 0
-12 -3 8 -8 -54 -63 -71 -63 -7 0 -13 -5 -13 -11 0 -8 -14 -10 -40 -6 -50 6
-57 -5 -30 -43 21 -29 21 -29 0 -25 -11 2 -20 0 -20 -6 0 -5 -9 -9 -20 -9 -11
0 -21 -4 -21 -10 -1 -5 -2 -14 -3 -20 -1 -12 -96 -73 -116 -75 -9 0 -22 -5
-29 -9 -18 -12 -73 -18 -67 -8 6 10 -81 8 -90 -1 -4 -4 2 -8 14 -8 12 -1 25
-2 30 -4 68 -18 85 -17 133 9 27 15 49 24 49 19 0 -4 5 0 11 10 6 9 16 14 22
11 7 -4 9 -4 5 1 -5 5 2 13 14 19 13 6 27 20 33 31 12 24 38 30 52 13 14 -18
40 -103 52 -171 14 -77 48 -138 121 -216 33 -35 60 -71 60 -81 0 -12 -23 -29
-73 -54 -41 -20 -80 -36 -89 -36 -25 0 -78 -21 -78 -32 0 -5 9 -7 19 -3 10 3
40 6 65 7 25 0 44 4 41 8 -4 6 37 30 51 30 3 0 3 -14 -1 -31 -5 -20 -3 -29 3
-25 5 3 12 18 15 33 9 41 15 46 101 88 82 40 177 105 233 158 18 17 35 28 38
26 2 -3 -15 -43 -38 -90 -24 -46 -51 -104 -60 -127 -13 -33 -22 -42 -34 -38
-13 5 -14 4 -3 -9 7 -8 10 -22 6 -30 -3 -8 -1 -15 4 -15 6 0 10 5 10 11 0 19
135 292 158 319 39 48 33 11 -12 -67 -43 -74 -126 -244 -126 -257 0 -3 9 -6
19 -6 14 0 18 5 14 20 -7 27 11 25 25 -3 10 -20 11 -19 6 11 -3 20 2 47 11 64
8 17 15 38 15 47 0 9 9 22 20 29 17 10 21 10 26 -3 3 -8 10 -12 15 -9 5 3 35
-17 65 -46 31 -28 70 -58 87 -67 17 -8 37 -22 45 -29 8 -9 35 -14 70 -13 l57
0 -47 19 c-64 26 -163 103 -203 159 -37 51 -37 50 -4 189 21 85 22 129 2 76
-6 -16 -14 -42 -18 -58 -3 -15 -8 -27 -10 -25 -2 2 4 42 14 89 19 94 14 95 53
-13 20 -57 82 -131 134 -162 21 -11 36 -31 43 -54 5 -20 30 -75 55 -123 29
-57 40 -89 33 -92 -8 -3 -8 -5 1 -5 7 -1 24 6 38 15 23 16 26 16 40 -2 15 -18
15 -18 10 7 -5 23 -1 29 24 39 17 7 33 16 36 21 6 11 -25 0 -51 -18 -23 -15
-35 -17 -35 -3 0 5 -14 39 -31 75 -18 36 -29 68 -25 72 10 11 55 12 61 2 4 -5
19 -2 36 6 16 9 34 13 39 10 6 -3 10 0 10 8 0 11 -17 13 -83 9 -76 -4 -89 -2
-142 24 -121 60 -194 169 -203 306 -5 89 8 136 60 218 42 65 71 94 121 118 27
13 34 21 27 32 -7 12 -12 12 -28 -3 -10 -9 -22 -14 -25 -10 -4 3 -7 -1 -7 -10
0 -10 -4 -17 -9 -17 -5 0 -7 110 -5 245 1 135 -1 243 -6 240 -5 -3 -11 8 -15
24 -8 37 -73 138 -110 171 -23 21 -21 17 9 -24z m98 -493 c-6 -65 -10 -70 -11
-15 0 28 3 52 7 52 4 0 6 -17 4 -37z m122 -833 c14 -5 26 -14 26 -20 0 -6 17
-47 37 -91 30 -67 34 -82 22 -90 -8 -5 -16 -9 -19 -9 -6 0 -47 79 -86 168 -25
54 -22 59 20 42z m-257 -85 c23 -32 28 -43 13 -30 -30 26 -80 95 -80 109 1 6
8 2 16 -9 8 -11 31 -42 51 -70z"/>
<path d="M1061 1562 c-13 -24 0 -38 24 -25 13 8 13 12 1 28 -13 18 -14 18 -25
-3z"/>
<path d="M1837 1540 c9 -59 8 -104 -2 -162 l-7 -46 68 -87 c38 -48 83 -93 99
-100 25 -11 27 -14 9 -14 -15 -1 -23 -9 -27 -30 -5 -21 -19 -36 -54 -56 -112
-63 -302 -115 -421 -115 -30 0 -53 -2 -51 -4 7 -7 118 -7 164 -1 67 10 78 12
143 34 35 12 67 19 73 16 5 -4 9 -2 9 4 0 5 21 17 46 27 25 10 53 24 61 32 12
12 17 12 23 3 5 -10 9 -9 13 4 4 9 3 13 -3 10 -6 -3 -10 -1 -10 4 0 6 4 11 9
11 5 0 30 20 56 45 25 25 50 43 55 40 5 -3 12 0 16 6 4 7 3 9 -4 5 -6 -3 -13
-2 -17 3 -3 6 -15 1 -27 -11 l-21 -21 -46 50 c-78 85 -111 127 -111 140 0 8
-7 10 -17 6 -10 -3 -15 -3 -11 2 4 4 3 15 -4 22 -9 11 -9 16 1 22 7 5 12 11
11 15 -1 3 1 20 5 36 6 26 10 29 38 26 18 -2 40 -4 50 -5 14 -1 17 -6 12 -23
-4 -13 -8 -25 -9 -28 0 -3 4 -6 9 -7 6 -2 10 3 10 10 0 7 11 11 25 10 16 -1
19 0 7 4 -12 3 -17 11 -14 23 5 19 -25 30 -79 30 -20 0 -24 5 -24 30 0 25 -4
29 -22 27 -17 -1 -24 5 -30 28 -4 18 -5 11 -1 -15z"/>
<path d="M545 1518 c-27 -98 -54 -223 -61 -291 -6 -61 -5 -67 11 -61 10 4 13
9 6 13 -7 5 -8 17 -2 37 5 16 14 45 20 65 6 19 11 47 11 62 0 14 4 28 8 31 4
2 9 19 10 38 2 18 10 43 18 56 9 14 11 21 4 17 -9 -5 -10 5 -5 39 10 62 -1 58
-20 -6z"/>
<path d="M2165 1544 c-24 -26 -45 -25 -45 2 0 8 -4 12 -10 9 -5 -3 -10 -17
-10 -31 0 -17 5 -24 20 -24 26 0 25 -18 -2 -47 -15 -16 -17 -23 -7 -23 22 1
52 27 44 40 -3 6 5 24 19 41 24 28 34 59 21 59 -3 0 -17 -12 -30 -26z"/>
<path d="M372 1508 c-49 -71 -62 -126 -61 -251 0 -62 4 -132 9 -157 5 -28 6 7
3 95 -6 159 6 222 58 308 36 59 30 62 -9 5z"/>
<path d="M1774 1533 c-12 -29 -16 -71 -6 -77 5 -3 9 8 10 24 0 17 4 39 7 50 8
25 0 26 -11 3z"/>
<path d="M2027 1543 c-10 -9 -9 -83 1 -83 5 0 17 6 28 14 15 12 17 17 7 27 -7
7 -13 21 -13 31 0 18 -11 24 -23 11z"/>
<path d="M666 1524 c-3 -8 1 -14 9 -14 8 0 19 -18 26 -40 7 -22 21 -47 31 -57
18 -16 20 -16 40 5 16 16 19 25 11 33 -8 8 -13 8 -17 0 -11 -18 -36 -13 -36 8
0 26 -57 84 -64 65z"/>
<path d="M2387 1490 c-35 -120 -47 -177 -47 -232 0 -47 3 -56 15 -52 10 4 13
14 9 28 -3 13 4 61 15 108 12 47 21 100 21 118 0 26 3 31 16 26 13 -5 14 -3 6
6 -5 7 -12 22 -14 33 -3 13 -10 2 -21 -35z"/>
<path d="M450 1508 c-8 -13 -13 -26 -12 -30 1 -5 -4 -8 -11 -8 -7 0 -21 -10
-31 -21 -18 -21 -18 -22 2 -17 27 7 50 -17 26 -26 -13 -5 -15 -9 -6 -18 16
-16 15 -33 -1 -20 -10 9 -13 6 -13 -13 0 -13 3 -22 7 -19 4 2 10 0 13 -5 3 -5
-4 -12 -17 -16 -19 -6 -19 -8 -4 -12 9 -2 14 -9 11 -15 -4 -5 -6 -27 -6 -47 0
-20 -3 -43 -9 -51 -6 -10 -9 -11 -9 -2 0 6 -7 12 -16 12 -8 0 -13 4 -10 9 4 5
-3 7 -15 4 -12 -4 -18 -11 -15 -20 3 -8 6 -16 6 -18 0 -2 9 -1 20 2 16 4 19 2
14 -11 -7 -19 7 -21 24 -4 7 7 12 8 12 2 0 -5 -5 -15 -12 -22 -8 -8 -9 -12 -1
-12 6 0 14 -8 16 -17 3 -10 6 0 7 22 9 142 40 361 56 386 12 20 -12 7 -26 -13z"/>
<path d="M2204 1505 c-8 -20 14 -65 31 -65 7 0 20 10 28 23 l16 22 7 -22 c8
-28 34 -30 34 -4 0 11 5 23 12 27 19 12 -24 23 -45 12 -32 -16 -57 -18 -57 -3
0 21 -19 28 -26 10z"/>
<path d="M2547 1485 c3 -16 10 -32 15 -33 4 -2 6 -7 3 -11 -2 -4 12 -8 33 -8
20 0 29 2 19 4 -10 3 -16 11 -13 18 7 19 -4 26 -25 14 -12 -6 -19 -6 -19 0 0
5 6 12 13 14 7 4 6 6 -5 6 -9 1 -19 7 -22 14 -3 6 -2 -1 1 -18z"/>
<path d="M1040 1481 l-35 -7 31 -6 c17 -4 40 -5 50 -2 29 7 42 -7 64 -67 18
-48 19 -50 13 -14 -4 22 -7 55 -7 73 0 31 -1 32 -40 31 -23 -1 -57 -5 -76 -8z"/>
<path d="M650 1437 c0 -27 4 -37 16 -37 13 0 15 6 9 28 -11 45 -25 50 -25 9z"/>
<path d="M2960 1463 c-1 -7 -3 -18 -4 -24 0 -7 -10 -15 -21 -19 -16 -6 -12 -8
19 -14 43 -8 57 -2 34 17 -9 6 -18 21 -21 32 -3 11 -6 14 -7 8z"/>
<path d="M1457 1444 c-3 -3 -26 -8 -51 -12 -89 -13 -45 -24 90 -23 92 1 140
-2 150 -10 8 -6 18 -9 22 -5 8 9 -28 37 -39 31 -4 -3 -20 0 -35 5 -30 12 -129
22 -137 14z"/>
<path d="M1269 1424 c5 -11 12 -30 15 -44 7 -31 23 -56 31 -49 7 8 -30 95 -45
104 -8 5 -9 2 -1 -11z"/>
<path d="M382 1413 c-17 -3 -23 -10 -19 -23 3 -12 -2 -20 -14 -23 -11 -3 -19
-14 -19 -25 0 -19 4 -20 39 -13 2 1 -2 8 -9 16 -7 8 -8 15 -3 15 5 0 19 14 31
30 13 17 21 29 20 29 -2 -1 -14 -4 -26 -6z"/>
<path d="M2608 1394 c9 -12 24 -19 32 -17 11 4 12 3 2 -4 -10 -8 -10 -16 -1
-39 12 -29 15 -38 17 -61 1 -7 7 -13 13 -13 5 0 8 3 5 8 -2 4 -5 30 -7 57 -3
65 -12 82 -48 87 -28 4 -29 4 -13 -18z"/>
<path d="M2135 1401 c-3 -5 4 -12 14 -16 17 -5 19 -10 11 -31 -12 -32 -12 -34
1 -34 5 0 7 5 4 10 -3 6 -1 10 4 10 6 0 11 6 11 13 0 6 7 20 14 30 13 17 15
16 45 -9 17 -14 31 -31 31 -37 1 -13 50 -76 50 -64 0 14 -42 92 -54 99 -6 5
-7 8 -1 8 6 0 -1 7 -15 15 -28 16 -106 20 -115 6z"/>
<path d="M620 1398 c0 -2 6 -35 14 -74 13 -72 35 -127 36 -92 0 32 -33 168
-42 168 -4 0 -8 -1 -8 -2z"/>
<path d="M763 1378 c-45 -50 -98 -195 -63 -173 5 3 7 12 3 20 -3 10 1 15 12
15 11 0 15 5 12 15 -4 8 -1 17 5 21 7 4 6 9 -2 14 -9 6 -7 10 8 14 11 4 23 14
26 22 4 10 2 13 -7 8 -6 -4 -3 4 9 17 12 13 24 30 28 37 12 20 -9 14 -31 -10z"/>
<path d="M277 1355 c-9 -20 -24 -38 -32 -41 -24 -10 -17 -26 8 -20 12 3 16 3
9 0 -10 -5 -10 -9 -1 -20 9 -11 8 -15 -4 -20 -9 -3 -21 -3 -27 1 -5 3 -10 1
-10 -4 0 -6 8 -11 17 -11 12 0 14 -3 6 -11 -12 -12 -5 -59 8 -59 5 0 7 -11 5
-25 -3 -13 -1 -27 4 -30 9 -6 10 -46 0 -41 -3 2 -12 -4 -20 -13 -15 -14 -14
-18 6 -39 l23 -24 -5 24 c-4 23 -4 23 6 -1 6 -14 8 -31 6 -38 -3 -7 -1 -13 5
-13 8 0 9 51 4 168 -5 111 -4 180 4 206 14 51 9 55 -12 11z"/>
<path d="M199 1357 c-8 -11 -23 -20 -32 -20 -9 0 -14 -4 -12 -8 3 -4 14 -5 25
-2 13 3 20 0 20 -9 0 -9 -13 -14 -40 -15 -56 -3 -89 -21 -35 -20 22 0 43 5 47
11 5 7 8 4 8 -7 0 -36 25 -10 32 34 10 55 7 62 -13 36z"/>
<path d="M2785 1344 c4 -22 9 -47 12 -56 5 -20 38 -24 48 -7 4 6 19 7 37 4 21
-5 28 -4 24 4 -10 15 17 14 33 -1 11 -11 12 -10 6 1 -6 10 -2 11 15 6 16 -5
21 -4 18 6 -3 8 -14 13 -24 11 -10 -1 -44 -4 -76 -5 -31 -1 -54 -5 -51 -9 2
-4 -3 -5 -11 -2 -16 6 -22 23 -8 25 4 0 18 2 31 5 14 2 29 -1 34 -8 6 -10 8
-9 4 2 -2 8 -12 17 -23 19 -10 2 -32 12 -47 23 l-28 20 6 -38z"/>
<path d="M1455 1360 c-4 -6 9 -10 31 -10 21 0 45 -7 55 -16 22 -20 35 -1 13
20 -17 18 -89 22 -99 6z"/>
<path d="M1687 1355 c-18 -13 -18 -14 2 -25 19 -9 21 -8 21 15 0 29 1 29 -23
10z"/>
<path d="M1779 1334 c-116 -121 -272 -178 -384 -139 -20 7 -20 7 0 -6 11 -7
26 -19 34 -27 24 -23 124 -7 211 35 68 33 142 97 173 150 17 29 0 22 -34 -13z"/>
<path d="M2714 1355 c8 -44 12 -50 30 -58 11 -4 24 -3 30 3 7 7 5 10 -5 10
-15 0 -41 25 -53 51 -3 8 -5 5 -2 -6z"/>
<path d="M331 1274 c1 -25 3 -31 6 -16 3 14 10 22 17 19 7 -3 13 1 13 9 0 8
-3 12 -5 9 -3 -3 -11 0 -19 6 -10 9 -13 4 -12 -27z"/>
<path d="M864 1278 c14 -18 38 -50 51 -70 14 -21 30 -38 35 -38 15 0 12 11 -7
26 -16 12 -16 13 -1 8 9 -3 -8 20 -38 50 -59 62 -82 75 -40 24z"/>
<path d="M1085 1240 c-16 -16 -35 -30 -43 -30 -8 0 -12 -6 -9 -14 3 -7 -7 -27
-22 -43 -26 -28 -32 -61 -9 -47 6 4 8 2 5 -3 -4 -6 0 -24 8 -39 15 -29 16 -28
9 21 -6 48 -4 52 45 118 28 37 49 67 48 67 -2 0 -16 -13 -32 -30z"/>
<path d="M1813 1215 c0 -33 2 -45 4 -27 2 18 2 45 0 60 -2 15 -4 0 -4 -33z"/>
<path d="M2795 1158 c-4 -55 -5 -101 -3 -104 3 -2 13 3 24 12 10 8 14 13 8 10
-26 -13 -22 24 4 43 20 15 22 20 11 21 -22 0 -34 31 -17 42 9 5 9 8 2 8 -7 0
-11 11 -10 24 1 17 4 21 13 15 6 -6 14 -6 17 -1 3 5 -5 14 -18 20 l-24 10 -7
-100z"/>
<path d="M1460 1222 c0 -4 8 -8 18 -8 9 0 29 -3 45 -7 21 -6 27 -4 27 8 0 11
-11 15 -45 15 -25 0 -45 -4 -45 -8z"/>
<path d="M2245 1167 c-16 -18 -32 -37 -34 -42 -2 -6 -6 -15 -8 -22 -3 -7 -13
-15 -24 -18 -11 -4 -16 -11 -13 -17 5 -8 1 -9 -10 -5 -10 4 -15 3 -11 -3 3 -6
9 -10 13 -10 11 0 66 50 56 50 -5 0 -1 5 9 11 9 6 15 14 12 20 -4 5 -2 9 3 9
4 0 18 14 30 30 30 40 15 38 -23 -3z"/>
<path d="M2323 1136 c-8 -27 -8 -39 3 -53 7 -10 13 -27 13 -38 0 -23 -49 -81
-84 -99 -17 -9 -21 -16 -15 -27 7 -11 26 4 85 65 41 43 75 84 75 92 0 8 -12
24 -26 37 -14 12 -29 30 -33 40 -6 15 -9 12 -18 -17z"/>
<path d="M440 1093 c0 -38 -5 -124 -10 -192 -5 -69 -8 -127 -5 -129 12 -13 18
14 23 100 2 51 8 120 12 153 l7 60 2 -48 c1 -29 5 -46 11 -42 6 3 10 2 10 -4
0 -5 -5 -11 -11 -13 -11 -4 -21 -78 -10 -78 3 0 14 11 23 24 13 18 15 31 7 64
-5 22 -7 54 -5 71 2 16 1 30 -3 29 -27 -3 -32 4 -25 37 5 28 3 35 -10 35 -13
0 -16 -12 -16 -67z"/>
<path d="M363 1106 c-34 -16 -27 -66 8 -66 13 0 17 -5 12 -17 -4 -11 -8 -12
-11 -5 -2 7 -7 12 -12 12 -12 0 -2 -53 11 -61 7 -4 4 -12 -6 -23 -15 -15 -15
-16 0 -16 9 0 14 -4 11 -9 -3 -5 2 -15 11 -22 10 -8 14 -9 10 -2 -4 6 -2 15 4
18 6 4 8 22 4 44 -3 20 -2 57 3 83 8 39 7 45 -6 41 -11 -5 -13 -1 -7 15 7 24
2 25 -32 8z"/>
<path d="M2950 1085 c11 -13 8 -15 -21 -16 -28 -1 -26 -3 16 -10 27 -4 51 -6
54 -3 2 2 -4 4 -13 4 -12 0 -16 5 -12 16 3 8 2 12 -4 9 -6 -3 -10 -1 -10 4 0
6 -5 11 -11 11 -8 0 -8 -5 1 -15z"/>
<path d="M321 965 c4 -121 19 -130 19 -12 0 62 -4 97 -11 97 -7 0 -9 -30 -8
-85z"/>
<path d="M730 1001 c0 -7 11 -28 24 -48 14 -19 22 -41 20 -47 -3 -7 13 -22 34
-34 21 -12 64 -50 95 -85 30 -35 93 -90 138 -123 45 -32 96 -73 113 -89 17
-17 50 -39 74 -48 50 -20 55 -21 46 -5 -5 7 -3 8 7 2 8 -4 23 -9 34 -11 11 -1
14 1 7 3 -6 3 -10 9 -7 13 2 5 -7 13 -21 20 -14 6 -23 7 -19 2 6 -11 -35 -9
-53 3 -7 4 -9 12 -6 18 5 7 2 8 -6 3 -7 -4 -15 -3 -19 3 -11 18 -133 112 -145
112 -6 0 -18 9 -26 20 -8 11 -19 20 -25 20 -5 0 -40 30 -76 68 -36 37 -82 81
-102 97 -20 17 -37 33 -37 37 0 13 -50 81 -50 69z"/>
<path d="M137 934 c-4 -4 -7 -12 -7 -18 0 -6 5 -4 10 4 9 13 12 13 21 -2 5
-10 22 -18 37 -18 23 0 24 2 12 14 -18 18 -63 30 -73 20z"/>
<path d="M20 920 c0 -5 7 -10 15 -10 8 0 15 -4 15 -10 0 -5 9 -10 20 -10 22 0
27 24 8 36 -7 4 -8 3 -4 -4 4 -7 3 -12 -3 -12 -5 0 -13 5 -16 10 -3 6 -13 10
-21 10 -8 0 -14 -4 -14 -10z"/>
<path d="M512 905 c-7 -8 -22 -15 -32 -15 -15 0 -20 -6 -19 -27 1 -16 3 -21 6
-11 2 9 17 23 34 30 16 7 29 19 29 25 0 16 -2 16 -18 -2z"/>
<path d="M2886 885 c-18 -23 -35 -35 -51 -35 -32 0 -103 -56 -138 -108 -88
-131 -38 -323 103 -395 47 -24 64 -28 117 -25 35 2 68 9 74 15 7 7 -9 9 -58 6
-76 -6 -117 7 -171 52 -122 102 -113 318 16 407 52 36 136 49 191 30 17 -6 31
-7 31 -2 0 11 -64 30 -99 30 l-24 0 23 25 c13 14 21 27 18 30 -3 3 -17 -10
-32 -30z"/>
<path d="M221 897 c-7 -9 -10 -24 -7 -33 5 -14 8 -14 21 0 20 19 50 11 32 -9
-7 -7 -16 -10 -21 -7 -5 3 -6 0 -2 -6 3 -6 16 -9 27 -7 16 3 18 1 10 -9 -9
-10 -8 -15 5 -20 9 -3 19 -4 22 -2 4 2 13 -2 20 -10 11 -12 10 -14 -5 -14 -15
0 -14 -4 7 -20 14 -11 32 -19 40 -19 10 0 11 2 2 6 -6 2 -10 8 -7 13 5 8 -60
109 -79 123 -6 4 -19 5 -28 3 -10 -2 -18 3 -20 12 -3 13 -5 13 -17 -1z"/>
<path d="M384 865 c4 -11 -1 -15 -17 -15 -12 0 -17 -4 -11 -8 5 -4 17 -17 25
-29 15 -22 16 -21 17 22 1 27 -2 45 -9 45 -6 0 -9 -7 -5 -15z"/>
<path d="M36 831 c-7 -10 23 -20 42 -14 6 3 12 9 12 14 0 12 -47 12 -54 0z"/>
<path d="M105 830 c-6 -10 14 -23 31 -19 12 3 66 -12 61 -17 -2 -2 13 -23 34
-45 21 -23 43 -56 49 -74 24 -72 14 -189 -19 -229 -8 -9 -11 -19 -9 -22 8 -8
43 45 56 85 15 42 15 124 2 172 -18 63 -121 162 -150 144 -6 -3 -10 -1 -10 4
0 14 -37 14 -45 1z"/>
<path d="M2798 772 c-31 -31 -64 -74 -73 -94 -43 -105 5 -237 106 -288 56 -29
169 -22 169 10 0 6 -9 6 -26 0 -14 -6 -44 -10 -67 -10 -39 1 -41 2 -23 15 11
8 15 15 10 15 -6 0 -15 -5 -21 -11 -17 -17 -71 18 -106 67 -58 83 -44 198 33
268 52 47 117 58 185 31 19 -7 19 -7 3 10 -13 15 -32 19 -82 19 -53 0 -63 2
-54 13 23 29 0 9 -54 -45z"/>
<path d="M464 808 c-10 -15 -19 -175 -9 -166 3 3 8 14 10 25 1 10 8 17 14 15
8 -1 9 7 4 25 -5 16 -8 47 -8 71 1 46 0 48 -11 30z"/>
<path d="M530 807 c0 -16 45 -158 59 -186 28 -53 100 -141 117 -141 12 0 12 5
-3 25 -10 13 -24 25 -30 25 -7 0 -13 5 -13 11 0 5 6 7 13 3 6 -4 -2 6 -18 22
-36 34 -56 74 -86 172 -13 39 -27 72 -31 72 -4 0 -8 -1 -8 -3z"/>
<path d="M130 773 c0 -10 16 -29 34 -43 43 -31 39 -38 -5 -11 -36 22 -115 30
-103 10 3 -6 17 -8 30 -5 57 15 124 -51 124 -121 0 -58 -21 -95 -67 -123 -36
-21 -56 -22 -111 -5 -32 11 -28 -13 5 -26 59 -22 145 23 173 91 7 16 16 27 21
24 5 -3 7 -9 4 -14 -3 -5 -8 -26 -11 -47 -4 -35 -3 -37 10 -18 63 90 27 230
-73 288 -30 17 -31 17 -31 0z"/>
<path d="M648 781 c8 -4 13 -11 13 -15 -3 -24 1 -37 18 -45 19 -10 19 -10 0
29 -11 22 -25 40 -32 40 -9 0 -8 -3 1 -9z"/>
<path d="M310 746 c0 -9 52 -61 61 -62 5 -1 14 -2 21 -3 6 0 8 -4 5 -8 -4 -3
-2 -12 5 -20 6 -7 8 -17 4 -20 -4 -4 -11 -1 -16 6 -4 8 -15 11 -25 8 -9 -4
-13 -11 -10 -17 4 -6 11 -8 16 -5 5 3 6 -1 3 -9 -4 -11 0 -16 10 -16 9 0 16
-7 16 -15 0 -9 -6 -12 -17 -9 -11 3 -9 0 4 -8 16 -10 20 -17 13 -28 -7 -11
-10 -11 -10 -2 0 7 -4 11 -9 8 -5 -4 -12 0 -14 6 -3 7 -6 0 -6 -16 -1 -22 3
-27 15 -22 12 5 14 1 9 -15 -8 -25 -13 -49 -14 -67 -1 -9 -6 -10 -20 -2 -21
10 -40 -3 -21 -15 18 -11 11 -42 -17 -69 -14 -14 -24 -29 -21 -32 9 -8 75 75
99 125 28 60 37 222 13 246 -9 8 -11 15 -5 15 6 0 8 7 5 15 -4 8 -17 15 -29
15 -13 0 -27 5 -30 10 -6 10 -35 14 -35 6z"/>
<path d="M2876 740 c-152 -46 -119 -295 40 -302 55 -2 79 14 82 53 2 31 2 32
-15 17 -35 -31 -86 -27 -124 11 -24 24 -29 38 -29 75 0 26 -5 46 -11 46 -5 0
-7 5 -4 10 4 6 11 8 16 5 5 -3 6 0 3 8 -7 20 42 57 77 57 34 0 60 -10 54 -20
-2 -4 4 -15 15 -25 20 -18 20 -17 20 12 0 27 -6 33 -40 47 -45 18 -44 18 -84
6z"/>
<path d="M2137 696 c4 -5 -32 -7 -93 -4 -56 4 -82 3 -59 -2 39 -7 39 -7 -17
-9 -32 0 -58 -6 -58 -11 0 -7 19 -9 48 -6 26 3 86 8 135 11 l87 7 -11 -25 c-8
-18 -8 -42 -2 -80 8 -47 3 -90 -12 -106 -3 -2 -13 7 -24 20 -17 21 -20 21 -21
6 0 -10 11 -28 25 -41 25 -23 32 -46 18 -59 -15 -16 -7 -59 14 -79 l23 -21 15
37 c9 20 17 49 19 64 2 15 1 21 -1 14 -2 -6 -11 -12 -18 -12 -8 0 -16 -12 -18
-27 -3 -22 -4 -20 -6 10 0 21 -5 47 -11 57 -7 13 -5 29 6 57 13 31 14 46 5 86
-9 39 -8 53 4 77 20 38 20 37 -19 42 -20 2 -32 0 -29 -6z"/>
<path d="M99 671 c8 -5 24 -36 37 -68 16 -44 24 -54 29 -40 19 45 -21 117 -65
117 -13 0 -13 -2 -1 -9z"/>
<path d="M496 650 c10 -38 60 -135 78 -150 9 -7 19 -10 23 -6 3 3 1 6 -6 6 -7
0 -9 5 -5 12 4 6 3 8 -3 5 -6 -4 -29 31 -52 76 -23 45 -38 71 -35 57z"/>
<path d="M2220 653 c0 -10 5 -47 10 -83 12 -85 14 -190 5 -214 -6 -13 -4 -17
4 -15 7 3 11 8 9 11 -2 4 5 13 16 21 16 12 17 16 4 27 -10 10 -12 26 -8 61 4
26 3 46 -2 43 -4 -3 -9 7 -10 23 -4 69 -3 95 4 99 9 6 -13 44 -24 44 -5 0 -8
-8 -8 -17z"/>
<path d="M2001 612 c-1 -26 7 -40 37 -67 38 -36 62 -44 62 -23 0 6 7 20 17 30
9 10 14 21 11 23 -3 3 -14 -8 -24 -24 l-19 -30 -33 28 c-20 16 -37 41 -42 61
l-8 35 -1 -33z"/>
<path d="M880 620 c8 -5 15 -13 15 -17 1 -18 27 -53 35 -48 4 3 10 0 12 -7 3
-8 7 -6 11 5 3 9 3 16 -1 16 -20 -3 -33 2 -30 13 5 14 -27 48 -44 48 -9 0 -8
-3 2 -10z"/>
<path d="M440 610 c0 -5 8 -10 18 -11 10 0 12 -3 5 -6 -15 -6 -17 -29 -4 -38
5 -3 13 0 17 6 4 8 3 9 -4 5 -7 -4 -12 -3 -12 3 0 5 4 12 10 16 13 8 1 35 -16
35 -8 0 -14 -4 -14 -10z"/>
<path d="M1968 610 c6 -8 12 -30 12 -50 0 -44 42 -124 66 -128 18 -3 18 -2 1
8 -25 16 -57 84 -57 123 0 21 -7 40 -17 48 -15 11 -16 11 -5 -1z"/>
<path d="M460 526 c0 -8 -5 -16 -10 -18 -7 -2 -2 -44 14 -113 14 -64 25 -97
26 -80 1 21 6 12 16 -34 8 -35 12 -66 10 -68 -2 -2 -10 -1 -18 2 -15 6 -30 58
-59 203 -7 40 -15 59 -20 50 -5 -7 -4 -17 1 -22 13 -13 13 -46 0 -46 -6 0 -8
-10 -4 -24 4 -18 1 -25 -11 -28 -14 -3 -12 -11 14 -60 17 -31 29 -63 27 -70
-1 -7 -1 -9 2 -5 2 4 15 1 29 -8 15 -10 34 -14 52 -10 25 5 30 0 64 -57 21
-35 43 -80 49 -100 9 -30 15 -37 34 -36 22 2 23 4 9 25 -8 12 -15 29 -15 38 0
8 -5 14 -10 13 -15 -4 -129 216 -134 257 0 6 -7 19 -13 30 -11 17 -14 18 -23
5 -7 -12 -9 -8 -9 15 1 17 -1 38 -3 49 -3 20 27 32 38 14 3 -5 14 -2 25 8 23
21 24 34 3 34 -8 0 -13 -4 -10 -9 3 -5 -1 -11 -9 -15 -8 -3 -15 -1 -15 5 0 6
-5 7 -12 3 -15 -10 -37 23 -31 46 3 11 3 20 -1 20 -3 0 -6 -6 -6 -14z"/>
<path d="M955 530 c-8 -13 12 -40 29 -40 6 0 27 -15 46 -33 45 -41 85 -67 106
-67 9 0 27 -9 41 -20 14 -11 34 -20 44 -20 10 0 21 -4 24 -10 3 -5 12 -10 18
-9 9 0 8 2 -1 6 -6 2 -10 9 -6 14 3 5 -1 9 -10 9 -8 0 -43 14 -78 32 -55 28
-86 48 -135 89 -7 5 -13 7 -13 4 0 -3 -10 3 -22 14 -11 11 -25 18 -30 15 -4
-3 -8 -1 -8 5 0 5 6 12 13 14 9 4 9 6 0 6 -6 1 -15 -4 -18 -9z"/>
<path d="M884 468 c10 -16 23 -28 28 -28 5 0 7 -4 4 -8 -6 -10 25 -38 53 -47
12 -3 21 -11 21 -16 0 -6 5 -7 10 -4 16 10 11 21 -15 33 -14 6 -46 31 -72 54
-36 33 -42 37 -29 16z"/>
<path d="M590 470 c0 -6 30 -40 66 -76 50 -50 63 -69 53 -75 -11 -7 -11 -9 1
-9 12 0 12 -2 1 -9 -10 -6 -10 -10 -1 -16 7 -4 13 1 17 14 3 12 7 21 9 21 10
0 144 -104 144 -111 0 -15 2 -23 11 -48 7 -18 6 -22 -4 -18 -8 3 -20 1 -28 -4
-11 -7 -11 -9 -1 -9 8 0 10 -5 6 -12 -6 -10 -5 -10 8 0 21 17 32 2 48 -65 8
-35 17 -53 27 -53 10 0 13 6 9 17 -4 9 -11 36 -17 61 -5 24 -16 56 -23 71 -7
14 -17 36 -20 48 -6 18 -4 22 8 17 9 -3 20 -20 25 -38 5 -17 10 -24 10 -15 1
15 7 14 49 -7 26 -13 74 -34 107 -47 59 -22 60 -23 66 -67 l6 -45 1 42 2 43
53 -19 c28 -11 72 -25 96 -31 54 -14 181 -28 181 -20 0 7 -99 36 -155 45 -124
21 -333 100 -437 166 -42 27 -80 49 -83 49 -21 0 -183 146 -201 183 -14 27
-34 37 -34 17z"/>
<path d="M1467 399 c-11 -6 -26 -12 -35 -14 -10 -1 -16 -8 -14 -15 2 -9 -5
-10 -23 -6 -18 5 -27 2 -31 -8 -3 -8 -14 -13 -24 -11 -10 2 -24 -3 -31 -11 -8
-10 -8 -14 0 -14 6 0 11 3 11 8 0 4 12 8 28 8 30 2 59 14 117 49 38 24 40 36
2 14z"/>
<path d="M8 338 c16 -16 139 -17 167 0 17 10 15 11 -15 5 -49 -10 -100 -9
-135 0 -25 7 -28 6 -17 -5z"/>
<path d="M549 332 c5 -10 28 -43 50 -72 23 -30 41 -58 41 -62 0 -5 7 -8 17 -8
15 0 15 1 0 18 -10 10 -17 23 -17 28 0 5 5 1 11 -8 5 -10 15 -18 21 -18 7 0 7
4 0 13 -6 7 -9 24 -8 38 3 24 1 25 -20 15 l-23 -11 22 -5 c20 -5 20 -7 4 -13
-10 -4 -20 -7 -22 -7 -2 0 -19 25 -40 55 -35 53 -56 75 -36 37z"/>
<path d="M2126 318 c18 -28 38 -47 46 -42 5 3 -3 17 -17 30 -28 26 -41 31 -29
12z"/>
<path d="M2185 265 c-24 -39 -45 -63 -52 -61 -7 3 -13 1 -13 -3 0 -5 7 -12 16
-15 19 -7 34 9 66 76 14 30 32 51 48 57 l25 9 -25 1 c-20 1 -32 -11 -65 -64z"/>
<path d="M357 312 c-4 -5 7 -36 23 -68 16 -32 29 -54 30 -49 0 20 -48 127 -53
117z"/>
<path d="M0 236 c0 -12 11 -14 93 -16 42 -1 124 17 115 25 -2 2 -28 -1 -59 -6
-32 -5 -76 -5 -103 0 -33 6 -46 5 -46 -3z"/>
<path d="M2939 175 c5 -11 22 -33 36 -50 14 -16 22 -21 16 -10 -5 11 -22 34
-36 50 -14 17 -22 21 -16 10z"/>
<path d="M219 159 c-9 -17 -8 -25 5 -37 10 -10 16 -12 16 -5 0 7 -5 15 -10 18
-6 4 -8 11 -4 16 3 5 10 7 15 4 5 -3 6 1 3 9 -8 21 -11 20 -25 -5z"/>
<path d="M1797 145 c-19 -9 -25 -10 -21 -2 5 9 4 9 -6 0 -7 -6 -19 -9 -26 -6
-8 3 -14 -1 -14 -8 0 -10 -3 -10 -12 -1 -15 15 -31 16 -22 0 5 -8 2 -9 -9 -5
-9 3 -19 2 -22 -4 -4 -5 -11 -7 -16 -4 -5 4 -9 1 -9 -6 0 -9 15 -10 58 -4 31
4 84 11 117 15 33 4 52 8 43 9 -10 0 -18 8 -18 16 0 19 -8 19 -43 0z"/>
<path d="M713 106 c-9 -16 -7 -23 11 -37 18 -15 19 -18 5 -24 -23 -9 -12 -45
14 -45 19 0 20 1 2 20 -10 11 -13 20 -8 20 6 0 13 12 16 26 3 18 1 24 -9 20
-8 -3 -14 4 -16 17 -3 21 -4 21 -15 3z"/>
<path d="M165 50 c-20 -40 -22 -50 -10 -50 8 0 15 9 15 19 0 28 11 52 20 46 5
-3 11 -1 15 5 3 5 1 10 -5 10 -6 0 -8 5 -5 10 3 6 4 10 1 10 -3 0 -17 -22 -31
-50z"/>
<path d="M811 76 c-12 -14 -5 -26 16 -26 15 0 18 26 4 34 -5 3 -14 0 -20 -8z"/>
<path d="M89 31 c-15 -25 -15 -27 4 -28 10 -1 17 1 13 4 -3 3 -1 14 4 24 16
29 -4 30 -21 0z"/>
<path d="M1660 49 c-12 -7 -11 -10 8 -15 12 -4 22 -9 22 -13 0 -4 34 -8 75 -9
51 -2 75 0 75 8 0 7 -8 9 -21 5 -21 -7 -116 11 -134 26 -6 4 -17 4 -25 -2z"/>
<path d="M275 24 c-29 -14 -42 -24 -30 -24 35 0 61 11 73 31 7 10 11 19 10 18
-2 0 -25 -11 -53 -25z"/>
<path d="M787 26 c-4 -11 -1 -16 11 -17 9 -1 27 -3 40 -4 28 -3 16 12 -13 17
-11 1 -23 7 -26 11 -3 5 -9 2 -12 -7z"/>
</g>
</svg>
